<?xml version="1.0" standalone="no"?>
<!DOCTYPE svg PUBLIC "-//W3C//DTD SVG 20010904//EN"
 "http://www.w3.org/TR/2001/REC-SVG-20010904/DTD/svg10.dtd">
<svg version="1.0" xmlns="http://www.w3.org/2000/svg"
 width="512.000000pt" height="512.000000pt" viewBox="0 0 512.000000 512.000000"
 preserveAspectRatio="xMidYMid meet">

<g transform="translate(0.000000,512.000000) scale(0.100000,-0.100000)"
fill="#000000" stroke="none">
<path d="M661 5100 c-186 -49 -330 -183 -399 -371 l-27 -74 -3 -1707 c-3
-1848 -4 -1775 51 -1898 52 -117 165 -233 277 -283 116 -52 94 -51 875 -55
l730 -3 55 -82 c30 -45 106 -134 170 -198 212 -213 440 -336 744 -401 121 -26
391 -31 521 -9 584 96 1060 542 1193 1116 138 592 -109 1221 -611 1551 -136
90 -360 188 -479 209 l-38 7 0 497 c0 466 -1 498 -19 526 -29 47 -1090 1158
-1125 1178 -29 16 -92 17 -936 16 -862 0 -909 -1 -979 -19z m1751 -577 c4
-352 6 -382 26 -435 61 -168 204 -291 368 -318 33 -6 202 -10 377 -10 l317 0
0 -410 0 -410 -92 0 c-207 -1 -425 -51 -623 -146 -99 -46 -224 -125 -296 -185
l-47 -39 -694 0 c-769 0 -725 4 -754 -66 -24 -58 4 -122 63 -145 14 -5 267 -9
603 -9 l580 0 -57 -87 c-31 -49 -72 -121 -91 -160 l-34 -73 -488 0 c-321 0
-497 -4 -518 -11 -78 -27 -90 -145 -19 -192 24 -15 70 -17 490 -17 l464 0 -14
-67 c-8 -38 -16 -140 -20 -228 -6 -184 13 -331 66 -494 l29 -92 -661 3 -662 3
-65 31 c-82 40 -134 92 -174 174 l-31 65 0 1710 0 1710 23 50 c36 78 70 121
126 160 97 66 57 64 973 64 l831 1 4 -377z m614 -193 c159 -168 298 -316 309
-328 l19 -23 -269 3 c-254 3 -272 4 -310 25 -50 27 -87 65 -117 123 -22 44
-23 54 -26 330 l-3 285 54 -55 c30 -30 184 -192 343 -360z m652 -1639 c584
-128 992 -632 992 -1225 0 -577 -391 -1076 -953 -1215 -162 -41 -397 -45 -552
-11 -493 108 -872 490 -971 980 -22 108 -29 310 -15 411 40 277 180 552 377
740 196 186 456 308 723 339 108 12 296 3 399 -19z"/>
<path d="M1063 3103 c-31 -6 -70 -48 -77 -84 -8 -40 15 -93 50 -116 26 -17 63
-18 600 -18 566 0 573 0 601 21 32 24 53 77 46 117 -7 35 -46 73 -84 81 -34 7
-1101 6 -1136 -1z"/>
<path d="M3330 2181 c-238 -33 -461 -210 -539 -429 -30 -81 -34 -86 -75 -94
-117 -25 -262 -142 -311 -254 -80 -182 -46 -380 91 -519 68 -69 172 -122 265
-135 83 -12 1235 -12 1318 0 251 36 432 280 392 529 -31 190 -179 344 -373
385 -21 5 -30 16 -44 58 -47 146 -139 264 -274 355 -124 83 -302 124 -450 104z
m251 -240 c73 -28 137 -74 188 -136 51 -62 77 -117 97 -203 8 -37 20 -78 26
-90 17 -33 59 -52 112 -52 101 0 205 -67 242 -156 18 -43 18 -145 0 -188 -19
-46 -72 -104 -120 -129 l-41 -22 -665 0 c-662 0 -665 0 -705 22 -197 106 -172
395 39 458 27 8 67 15 88 15 48 0 90 21 106 52 6 12 18 53 26 90 23 101 53
156 125 229 73 73 107 94 196 121 79 24 208 19 286 -11z"/>
</g>
</svg>
